<?xml version="1.0" standalone="no"?>
<!DOCTYPE svg PUBLIC "-//W3C//DTD SVG 20010904//EN"
 "http://www.w3.org/TR/2001/REC-SVG-20010904/DTD/svg10.dtd">
<svg version="1.0" xmlns="http://www.w3.org/2000/svg"
 width="217.000000pt" height="107.000000pt" viewBox="0 0 217.000000 107.000000"
 preserveAspectRatio="xMidYMid meet">

<g transform="translate(0.000000,107.000000) scale(0.100000,-0.100000)"
fill="black" stroke="none" >
<path d="M0 535 l0 -535 1085 0 1085 0 0 535 0 535 -1085 0 -1085 0 0 -535z
m1812 311 c8 -19 8 -37 -1 -73 -18 -70 -54 -125 -132 -205 -70 -71 -87 -104
-29 -54 56 47 73 33 74 -58 1 -39 5 -61 14 -64 7 -2 37 22 67 54 30 32 57 55
61 51 12 -12 -77 -111 -119 -133 -44 -23 -57 -5 -57 77 0 38 -4 69 -8 69 -11
0 -64 -58 -86 -93 -21 -35 -40 -25 -33 18 l5 33 -49 -24 c-27 -14 -49 -32 -49
-40 0 -9 -13 -29 -30 -45 -23 -24 -37 -30 -62 -27 -45 4 -49 33 -8 56 66 36
66 37 28 60 l-35 22 -46 -45 c-85 -81 -142 -94 -154 -34 -5 27 -7 28 -22 14
-50 -44 -121 -39 -121 10 l0 25 -32 -20 c-65 -39 -101 -20 -97 52 2 33 -1 42
-12 40 -22 -5 -78 -50 -95 -78 -16 -24 -54 -34 -54 -14 0 6 12 33 26 61 14 28
22 54 19 57 -4 4 -42 -30 -85 -75 -44 -46 -84 -83 -91 -83 -8 0 -10 11 -6 34
l5 34 -55 -29 c-65 -34 -105 -37 -133 -9 -24 24 -25 38 -4 90 11 27 22 40 35
40 23 0 23 -3 2 -58 -15 -39 -15 -45 -1 -59 11 -11 25 -13 47 -8 44 9 132 78
147 115 9 19 20 30 33 30 22 0 20 -15 -15 -83 -15 -27 -7 -23 50 31 46 43 75
62 93 62 24 0 25 -3 20 -35 -3 -19 -4 -35 -2 -35 2 0 20 9 39 21 22 13 43 18
56 14 17 -5 20 -15 20 -61 0 -75 22 -71 122 21 77 71 135 81 178 31 10 -13 10
-16 -3 -16 -9 0 -19 5 -22 10 -10 17 -55 11 -85 -10 -26 -18 -60 -75 -60 -99
0 -25 42 -8 93 39 51 46 77 61 77 43 0 -5 -7 -26 -15 -48 -19 -52 -18 -65 1
-65 22 0 132 96 140 123 9 32 44 68 82 84 30 12 37 12 58 -2 13 -8 24 -20 24
-26 0 -18 -32 -79 -41 -79 -16 0 -18 17 -4 36 19 25 19 54 -1 54 -21 0 -87
-66 -82 -82 3 -7 20 -22 40 -32 l35 -20 54 31 c54 30 54 31 90 132 66 184 120
271 171 271 10 0 23 -11 30 -24z m-1332 -266 c0 -13 -7 -20 -18 -20 -24 0 -32
8 -25 26 8 22 43 17 43 -6z"/>
<path d="M1763 828 c-36 -40 -132 -253 -119 -265 6 -6 93 112 117 159 18 35
38 128 27 128 -2 0 -14 -10 -25 -22z"/>
<path d="M1395 380 c-19 -12 -24 -20 -14 -20 9 0 24 9 34 20 23 25 18 25 -20
0z"/>
</g>
</svg>
